<?xml version="1.0" encoding="utf-8" standalone="no"?>
<!DOCTYPE svg PUBLIC "-//W3C//DTD SVG 1.1//EN"
  "http://www.w3.org/Graphics/SVG/1.1/DTD/svg11.dtd">
<!-- Created with matplotlib (https://matplotlib.org/) -->
<svg height="216pt" version="1.1" viewBox="0 0 216 216" width="216pt" xmlns="http://www.w3.org/2000/svg" xmlns:xlink="http://www.w3.org/1999/xlink">
 <defs>
  <style type="text/css">
*{stroke-linecap:butt;stroke-linejoin:round;}
  </style>
 </defs>
 <g id="figure_1">
  <g id="patch_1">
   <path d="M 0 216 
L 216 216 
L 216 0 
L 0 0 
z
" style="fill:#ffffff;"/>
  </g>
  <g id="axes_1">
   <g id="patch_2">
    <path d="M 2.16 213.84 
L 213.84 213.84 
L 213.84 2.16 
L 2.16 2.16 
z
" style="fill:none;"/>
   </g>
   <g id="patch_3">
    <path clip-path="url(#p7c7f686f16)" d="M 11.781818 213.84 
L 15.790909 213.84 
L 15.790909 179.081379 
L 11.781818 179.081379 
z
" style="fill:#1f77b4;"/>
   </g>
   <g id="patch_4">
    <path clip-path="url(#p7c7f686f16)" d="M 15.790909 213.84 
L 19.8 213.84 
L 19.8 213.84 
L 15.790909 213.84 
z
" style="fill:#1f77b4;"/>
   </g>
   <g id="patch_5">
    <path clip-path="url(#p7c7f686f16)" d="M 19.8 213.84 
L 23.809091 213.84 
L 23.809091 12.24 
L 19.8 12.24 
z
" style="fill:#1f77b4;"/>
   </g>
   <g id="patch_6">
    <path clip-path="url(#p7c7f686f16)" d="M 23.809091 213.84 
L 27.818182 213.84 
L 27.818182 165.177931 
L 23.809091 165.177931 
z
" style="fill:#1f77b4;"/>
   </g>
   <g id="patch_7">
    <path clip-path="url(#p7c7f686f16)" d="M 27.818182 213.84 
L 31.827273 213.84 
L 31.827273 213.84 
L 27.818182 213.84 
z
" style="fill:#1f77b4;"/>
   </g>
   <g id="patch_8">
    <path clip-path="url(#p7c7f686f16)" d="M 31.827273 213.84 
L 35.836364 213.84 
L 35.836364 213.84 
L 31.827273 213.84 
z
" style="fill:#1f77b4;"/>
   </g>
   <g id="patch_9">
    <path clip-path="url(#p7c7f686f16)" d="M 35.836364 213.84 
L 39.845455 213.84 
L 39.845455 165.177931 
L 35.836364 165.177931 
z
" style="fill:#1f77b4;"/>
   </g>
   <g id="patch_10">
    <path clip-path="url(#p7c7f686f16)" d="M 39.845455 213.84 
L 43.854545 213.84 
L 43.854545 213.84 
L 39.845455 213.84 
z
" style="fill:#1f77b4;"/>
   </g>
   <g id="patch_11">
    <path clip-path="url(#p7c7f686f16)" d="M 43.854545 213.84 
L 47.863636 213.84 
L 47.863636 206.888276 
L 43.854545 206.888276 
z
" style="fill:#1f77b4;"/>
   </g>
   <g id="patch_12">
    <path clip-path="url(#p7c7f686f16)" d="M 47.863636 213.84 
L 51.872727 213.84 
L 51.872727 206.888276 
L 47.863636 206.888276 
z
" style="fill:#1f77b4;"/>
   </g>
   <g id="patch_13">
    <path clip-path="url(#p7c7f686f16)" d="M 83.945455 213.84 
L 90.36 213.84 
L 90.36 165.177931 
L 83.945455 165.177931 
z
" style="fill:#ff7f0e;"/>
   </g>
   <g id="patch_14">
    <path clip-path="url(#p7c7f686f16)" d="M 90.36 213.84 
L 96.774545 213.84 
L 96.774545 192.984828 
L 90.36 192.984828 
z
" style="fill:#ff7f0e;"/>
   </g>
   <g id="patch_15">
    <path clip-path="url(#p7c7f686f16)" d="M 96.774545 213.84 
L 103.189091 213.84 
L 103.189091 179.081379 
L 96.774545 179.081379 
z
" style="fill:#ff7f0e;"/>
   </g>
   <g id="patch_16">
    <path clip-path="url(#p7c7f686f16)" d="M 103.189091 213.84 
L 109.603636 213.84 
L 109.603636 123.467586 
L 103.189091 123.467586 
z
" style="fill:#ff7f0e;"/>
   </g>
   <g id="patch_17">
    <path clip-path="url(#p7c7f686f16)" d="M 109.603636 213.84 
L 116.018182 213.84 
L 116.018182 213.84 
L 109.603636 213.84 
z
" style="fill:#ff7f0e;"/>
   </g>
   <g id="patch_18">
    <path clip-path="url(#p7c7f686f16)" d="M 116.018182 213.84 
L 122.432727 213.84 
L 122.432727 165.177931 
L 116.018182 165.177931 
z
" style="fill:#ff7f0e;"/>
   </g>
   <g id="patch_19">
    <path clip-path="url(#p7c7f686f16)" d="M 122.432727 213.84 
L 128.847273 213.84 
L 128.847273 144.322759 
L 122.432727 144.322759 
z
" style="fill:#ff7f0e;"/>
   </g>
   <g id="patch_20">
    <path clip-path="url(#p7c7f686f16)" d="M 128.847273 213.84 
L 135.261818 213.84 
L 135.261818 192.984828 
L 128.847273 192.984828 
z
" style="fill:#ff7f0e;"/>
   </g>
   <g id="patch_21">
    <path clip-path="url(#p7c7f686f16)" d="M 135.261818 213.84 
L 141.676364 213.84 
L 141.676364 206.888276 
L 135.261818 206.888276 
z
" style="fill:#ff7f0e;"/>
   </g>
   <g id="patch_22">
    <path clip-path="url(#p7c7f686f16)" d="M 141.676364 213.84 
L 148.090909 213.84 
L 148.090909 206.888276 
L 141.676364 206.888276 
z
" style="fill:#ff7f0e;"/>
   </g>
   <g id="patch_23">
    <path clip-path="url(#p7c7f686f16)" d="M 116.018182 213.84 
L 124.838182 213.84 
L 124.838182 192.984828 
L 116.018182 192.984828 
z
" style="fill:#2ca02c;"/>
   </g>
   <g id="patch_24">
    <path clip-path="url(#p7c7f686f16)" d="M 124.838182 213.84 
L 133.658182 213.84 
L 133.658182 206.888276 
L 124.838182 206.888276 
z
" style="fill:#2ca02c;"/>
   </g>
   <g id="patch_25">
    <path clip-path="url(#p7c7f686f16)" d="M 133.658182 213.84 
L 142.478182 213.84 
L 142.478182 206.888276 
L 133.658182 206.888276 
z
" style="fill:#2ca02c;"/>
   </g>
   <g id="patch_26">
    <path clip-path="url(#p7c7f686f16)" d="M 142.478182 213.84 
L 151.298182 213.84 
L 151.298182 137.371034 
L 142.478182 137.371034 
z
" style="fill:#2ca02c;"/>
   </g>
   <g id="patch_27">
    <path clip-path="url(#p7c7f686f16)" d="M 151.298182 213.84 
L 160.118182 213.84 
L 160.118182 179.081379 
L 151.298182 179.081379 
z
" style="fill:#2ca02c;"/>
   </g>
   <g id="patch_28">
    <path clip-path="url(#p7c7f686f16)" d="M 160.118182 213.84 
L 168.938182 213.84 
L 168.938182 172.129655 
L 160.118182 172.129655 
z
" style="fill:#2ca02c;"/>
   </g>
   <g id="patch_29">
    <path clip-path="url(#p7c7f686f16)" d="M 168.938182 213.84 
L 177.758182 213.84 
L 177.758182 172.129655 
L 168.938182 172.129655 
z
" style="fill:#2ca02c;"/>
   </g>
   <g id="patch_30">
    <path clip-path="url(#p7c7f686f16)" d="M 177.758182 213.84 
L 186.578182 213.84 
L 186.578182 192.984828 
L 177.758182 192.984828 
z
" style="fill:#2ca02c;"/>
   </g>
   <g id="patch_31">
    <path clip-path="url(#p7c7f686f16)" d="M 186.578182 213.84 
L 195.398182 213.84 
L 195.398182 158.226207 
L 186.578182 158.226207 
z
" style="fill:#2ca02c;"/>
   </g>
   <g id="patch_32">
    <path clip-path="url(#p7c7f686f16)" d="M 195.398182 213.84 
L 204.218182 213.84 
L 204.218182 172.129655 
L 195.398182 172.129655 
z
" style="fill:#2ca02c;"/>
   </g>
   <g id="matplotlib.axis_1"/>
   <g id="matplotlib.axis_2"/>
   <g id="patch_33">
    <path d="M 2.16 213.84 
L 2.16 2.16 
" style="fill:none;stroke:#000000;stroke-linecap:square;stroke-linejoin:miter;stroke-width:0.8;"/>
   </g>
   <g id="patch_34">
    <path d="M 2.16 213.84 
L 213.84 213.84 
" style="fill:none;stroke:#000000;stroke-linecap:square;stroke-linejoin:miter;stroke-width:0.8;"/>
   </g>
  </g>
 </g>
 <defs>
  <clipPath id="p7c7f686f16">
   <rect height="211.68" width="211.68" x="2.16" y="2.16"/>
  </clipPath>
 </defs>
</svg>
