<?xml version="1.0" encoding="utf-8" standalone="no"?>
<!DOCTYPE svg PUBLIC "-//W3C//DTD SVG 1.1//EN"
  "http://www.w3.org/Graphics/SVG/1.1/DTD/svg11.dtd">
<!-- Created with matplotlib (https://matplotlib.org/) -->
<svg height="216pt" version="1.1" viewBox="0 0 216 216" width="216pt" xmlns="http://www.w3.org/2000/svg" xmlns:xlink="http://www.w3.org/1999/xlink">
 <defs>
  <style type="text/css">
*{stroke-linecap:butt;stroke-linejoin:round;}
  </style>
 </defs>
 <g id="figure_1">
  <g id="patch_1">
   <path d="M 0 216 
L 216 216 
L 216 0 
L 0 0 
z
" style="fill:#ffffff;"/>
  </g>
  <g id="axes_1">
   <g id="patch_2">
    <path d="M 2.16 213.84 
L 213.84 213.84 
L 213.84 2.16 
L 2.16 2.16 
z
" style="fill:none;"/>
   </g>
   <g id="patch_3">
    <path clip-path="url(#p894b922c34)" d="M 35.836364 213.84 
L 52.674545 213.84 
L 52.674545 201.24 
L 35.836364 201.24 
z
" style="fill:#1f77b4;"/>
   </g>
   <g id="patch_4">
    <path clip-path="url(#p894b922c34)" d="M 52.674545 213.84 
L 69.512727 213.84 
L 69.512727 213.84 
L 52.674545 213.84 
z
" style="fill:#1f77b4;"/>
   </g>
   <g id="patch_5">
    <path clip-path="url(#p894b922c34)" d="M 69.512727 213.84 
L 86.350909 213.84 
L 86.350909 201.24 
L 69.512727 201.24 
z
" style="fill:#1f77b4;"/>
   </g>
   <g id="patch_6">
    <path clip-path="url(#p894b922c34)" d="M 86.350909 213.84 
L 103.189091 213.84 
L 103.189091 87.84 
L 86.350909 87.84 
z
" style="fill:#1f77b4;"/>
   </g>
   <g id="patch_7">
    <path clip-path="url(#p894b922c34)" d="M 103.189091 213.84 
L 120.027273 213.84 
L 120.027273 125.64 
L 103.189091 125.64 
z
" style="fill:#1f77b4;"/>
   </g>
   <g id="patch_8">
    <path clip-path="url(#p894b922c34)" d="M 120.027273 213.84 
L 136.865455 213.84 
L 136.865455 24.84 
L 120.027273 24.84 
z
" style="fill:#1f77b4;"/>
   </g>
   <g id="patch_9">
    <path clip-path="url(#p894b922c34)" d="M 136.865455 213.84 
L 153.703636 213.84 
L 153.703636 138.24 
L 136.865455 138.24 
z
" style="fill:#1f77b4;"/>
   </g>
   <g id="patch_10">
    <path clip-path="url(#p894b922c34)" d="M 153.703636 213.84 
L 170.541818 213.84 
L 170.541818 138.24 
L 153.703636 138.24 
z
" style="fill:#1f77b4;"/>
   </g>
   <g id="patch_11">
    <path clip-path="url(#p894b922c34)" d="M 170.541818 213.84 
L 187.38 213.84 
L 187.38 188.64 
L 170.541818 188.64 
z
" style="fill:#1f77b4;"/>
   </g>
   <g id="patch_12">
    <path clip-path="url(#p894b922c34)" d="M 187.38 213.84 
L 204.218182 213.84 
L 204.218182 188.64 
L 187.38 188.64 
z
" style="fill:#1f77b4;"/>
   </g>
   <g id="patch_13">
    <path clip-path="url(#p894b922c34)" d="M 11.781818 213.84 
L 23.007273 213.84 
L 23.007273 201.24 
L 11.781818 201.24 
z
" style="fill:#ff7f0e;"/>
   </g>
   <g id="patch_14">
    <path clip-path="url(#p894b922c34)" d="M 23.007273 213.84 
L 34.232727 213.84 
L 34.232727 188.64 
L 23.007273 188.64 
z
" style="fill:#ff7f0e;"/>
   </g>
   <g id="patch_15">
    <path clip-path="url(#p894b922c34)" d="M 34.232727 213.84 
L 45.458182 213.84 
L 45.458182 138.24 
L 34.232727 138.24 
z
" style="fill:#ff7f0e;"/>
   </g>
   <g id="patch_16">
    <path clip-path="url(#p894b922c34)" d="M 45.458182 213.84 
L 56.683636 213.84 
L 56.683636 163.44 
L 45.458182 163.44 
z
" style="fill:#ff7f0e;"/>
   </g>
   <g id="patch_17">
    <path clip-path="url(#p894b922c34)" d="M 56.683636 213.84 
L 67.909091 213.84 
L 67.909091 176.04 
L 56.683636 176.04 
z
" style="fill:#ff7f0e;"/>
   </g>
   <g id="patch_18">
    <path clip-path="url(#p894b922c34)" d="M 67.909091 213.84 
L 79.134545 213.84 
L 79.134545 75.24 
L 67.909091 75.24 
z
" style="fill:#ff7f0e;"/>
   </g>
   <g id="patch_19">
    <path clip-path="url(#p894b922c34)" d="M 79.134545 213.84 
L 90.36 213.84 
L 90.36 125.64 
L 79.134545 125.64 
z
" style="fill:#ff7f0e;"/>
   </g>
   <g id="patch_20">
    <path clip-path="url(#p894b922c34)" d="M 90.36 213.84 
L 101.585455 213.84 
L 101.585455 75.24 
L 90.36 75.24 
z
" style="fill:#ff7f0e;"/>
   </g>
   <g id="patch_21">
    <path clip-path="url(#p894b922c34)" d="M 101.585455 213.84 
L 112.810909 213.84 
L 112.810909 176.04 
L 101.585455 176.04 
z
" style="fill:#ff7f0e;"/>
   </g>
   <g id="patch_22">
    <path clip-path="url(#p894b922c34)" d="M 112.810909 213.84 
L 124.036364 213.84 
L 124.036364 188.64 
L 112.810909 188.64 
z
" style="fill:#ff7f0e;"/>
   </g>
   <g id="patch_23">
    <path clip-path="url(#p894b922c34)" d="M 27.818182 213.84 
L 40.647273 213.84 
L 40.647273 201.24 
L 27.818182 201.24 
z
" style="fill:#2ca02c;"/>
   </g>
   <g id="patch_24">
    <path clip-path="url(#p894b922c34)" d="M 40.647273 213.84 
L 53.476364 213.84 
L 53.476364 163.44 
L 40.647273 163.44 
z
" style="fill:#2ca02c;"/>
   </g>
   <g id="patch_25">
    <path clip-path="url(#p894b922c34)" d="M 53.476364 213.84 
L 66.305455 213.84 
L 66.305455 188.64 
L 53.476364 188.64 
z
" style="fill:#2ca02c;"/>
   </g>
   <g id="patch_26">
    <path clip-path="url(#p894b922c34)" d="M 66.305455 213.84 
L 79.134545 213.84 
L 79.134545 62.64 
L 66.305455 62.64 
z
" style="fill:#2ca02c;"/>
   </g>
   <g id="patch_27">
    <path clip-path="url(#p894b922c34)" d="M 79.134545 213.84 
L 91.963636 213.84 
L 91.963636 188.64 
L 79.134545 188.64 
z
" style="fill:#2ca02c;"/>
   </g>
   <g id="patch_28">
    <path clip-path="url(#p894b922c34)" d="M 91.963636 213.84 
L 104.792727 213.84 
L 104.792727 12.24 
L 91.963636 12.24 
z
" style="fill:#2ca02c;"/>
   </g>
   <g id="patch_29">
    <path clip-path="url(#p894b922c34)" d="M 104.792727 213.84 
L 117.621818 213.84 
L 117.621818 113.04 
L 104.792727 113.04 
z
" style="fill:#2ca02c;"/>
   </g>
   <g id="patch_30">
    <path clip-path="url(#p894b922c34)" d="M 117.621818 213.84 
L 130.450909 213.84 
L 130.450909 188.64 
L 117.621818 188.64 
z
" style="fill:#2ca02c;"/>
   </g>
   <g id="patch_31">
    <path clip-path="url(#p894b922c34)" d="M 130.450909 213.84 
L 143.28 213.84 
L 143.28 201.24 
L 130.450909 201.24 
z
" style="fill:#2ca02c;"/>
   </g>
   <g id="patch_32">
    <path clip-path="url(#p894b922c34)" d="M 143.28 213.84 
L 156.109091 213.84 
L 156.109091 188.64 
L 143.28 188.64 
z
" style="fill:#2ca02c;"/>
   </g>
   <g id="matplotlib.axis_1"/>
   <g id="matplotlib.axis_2"/>
   <g id="patch_33">
    <path d="M 2.16 213.84 
L 2.16 2.16 
" style="fill:none;stroke:#000000;stroke-linecap:square;stroke-linejoin:miter;stroke-width:0.8;"/>
   </g>
   <g id="patch_34">
    <path d="M 2.16 213.84 
L 213.84 213.84 
" style="fill:none;stroke:#000000;stroke-linecap:square;stroke-linejoin:miter;stroke-width:0.8;"/>
   </g>
  </g>
 </g>
 <defs>
  <clipPath id="p894b922c34">
   <rect height="211.68" width="211.68" x="2.16" y="2.16"/>
  </clipPath>
 </defs>
</svg>
