<?xml version="1.0" encoding="utf-8" standalone="no"?>
<!DOCTYPE svg PUBLIC "-//W3C//DTD SVG 1.1//EN"
  "http://www.w3.org/Graphics/SVG/1.1/DTD/svg11.dtd">
<!-- Created with matplotlib (https://matplotlib.org/) -->
<svg height="216pt" version="1.1" viewBox="0 0 216 216" width="216pt" xmlns="http://www.w3.org/2000/svg" xmlns:xlink="http://www.w3.org/1999/xlink">
 <defs>
  <style type="text/css">
*{stroke-linecap:butt;stroke-linejoin:round;}
  </style>
 </defs>
 <g id="figure_1">
  <g id="patch_1">
   <path d="M 0 216 
L 216 216 
L 216 0 
L 0 0 
z
" style="fill:#ffffff;"/>
  </g>
  <g id="axes_1">
   <g id="patch_2">
    <path d="M 2.16 213.84 
L 213.84 213.84 
L 213.84 2.16 
L 2.16 2.16 
z
" style="fill:none;"/>
   </g>
   <g id="patch_3">
    <path clip-path="url(#pd6c8c4113e)" d="M 11.781818 213.84 
L 14.717288 213.84 
L 14.717288 198.332308 
L 11.781818 198.332308 
z
" style="fill:#1f77b4;"/>
   </g>
   <g id="patch_4">
    <path clip-path="url(#pd6c8c4113e)" d="M 14.717288 213.84 
L 17.652758 213.84 
L 17.652758 198.332308 
L 14.717288 198.332308 
z
" style="fill:#1f77b4;"/>
   </g>
   <g id="patch_5">
    <path clip-path="url(#pd6c8c4113e)" d="M 17.652758 213.84 
L 20.588228 213.84 
L 20.588228 182.824615 
L 17.652758 182.824615 
z
" style="fill:#1f77b4;"/>
   </g>
   <g id="patch_6">
    <path clip-path="url(#pd6c8c4113e)" d="M 20.588228 213.84 
L 23.523698 213.84 
L 23.523698 105.286154 
L 20.588228 105.286154 
z
" style="fill:#1f77b4;"/>
   </g>
   <g id="patch_7">
    <path clip-path="url(#pd6c8c4113e)" d="M 23.523698 213.84 
L 26.459168 213.84 
L 26.459168 12.24 
L 23.523698 12.24 
z
" style="fill:#1f77b4;"/>
   </g>
   <g id="patch_8">
    <path clip-path="url(#pd6c8c4113e)" d="M 26.459168 213.84 
L 29.394638 213.84 
L 29.394638 12.24 
L 26.459168 12.24 
z
" style="fill:#1f77b4;"/>
   </g>
   <g id="patch_9">
    <path clip-path="url(#pd6c8c4113e)" d="M 29.394638 213.84 
L 32.330108 213.84 
L 32.330108 105.286154 
L 29.394638 105.286154 
z
" style="fill:#1f77b4;"/>
   </g>
   <g id="patch_10">
    <path clip-path="url(#pd6c8c4113e)" d="M 32.330108 213.84 
L 35.265578 213.84 
L 35.265578 151.809231 
L 32.330108 151.809231 
z
" style="fill:#1f77b4;"/>
   </g>
   <g id="patch_11">
    <path clip-path="url(#pd6c8c4113e)" d="M 35.265578 213.84 
L 38.201048 213.84 
L 38.201048 213.84 
L 35.265578 213.84 
z
" style="fill:#1f77b4;"/>
   </g>
   <g id="patch_12">
    <path clip-path="url(#pd6c8c4113e)" d="M 38.201048 213.84 
L 41.136518 213.84 
L 41.136518 182.824615 
L 38.201048 182.824615 
z
" style="fill:#1f77b4;"/>
   </g>
   <g id="patch_13">
    <path clip-path="url(#pd6c8c4113e)" d="M 77.014484 213.84 
L 83.863914 213.84 
L 83.863914 198.332308 
L 77.014484 198.332308 
z
" style="fill:#ff7f0e;"/>
   </g>
   <g id="patch_14">
    <path clip-path="url(#pd6c8c4113e)" d="M 83.863914 213.84 
L 90.713344 213.84 
L 90.713344 182.824615 
L 83.863914 182.824615 
z
" style="fill:#ff7f0e;"/>
   </g>
   <g id="patch_15">
    <path clip-path="url(#pd6c8c4113e)" d="M 90.713344 213.84 
L 97.562773 213.84 
L 97.562773 167.316923 
L 90.713344 167.316923 
z
" style="fill:#ff7f0e;"/>
   </g>
   <g id="patch_16">
    <path clip-path="url(#pd6c8c4113e)" d="M 97.562773 213.84 
L 104.412203 213.84 
L 104.412203 182.824615 
L 97.562773 182.824615 
z
" style="fill:#ff7f0e;"/>
   </g>
   <g id="patch_17">
    <path clip-path="url(#pd6c8c4113e)" d="M 104.412203 213.84 
L 111.261633 213.84 
L 111.261633 89.778462 
L 104.412203 89.778462 
z
" style="fill:#ff7f0e;"/>
   </g>
   <g id="patch_18">
    <path clip-path="url(#pd6c8c4113e)" d="M 111.261633 213.84 
L 118.111063 213.84 
L 118.111063 105.286154 
L 111.261633 105.286154 
z
" style="fill:#ff7f0e;"/>
   </g>
   <g id="patch_19">
    <path clip-path="url(#pd6c8c4113e)" d="M 118.111063 213.84 
L 124.960493 213.84 
L 124.960493 120.793846 
L 118.111063 120.793846 
z
" style="fill:#ff7f0e;"/>
   </g>
   <g id="patch_20">
    <path clip-path="url(#pd6c8c4113e)" d="M 124.960493 213.84 
L 131.809923 213.84 
L 131.809923 58.763077 
L 124.960493 58.763077 
z
" style="fill:#ff7f0e;"/>
   </g>
   <g id="patch_21">
    <path clip-path="url(#pd6c8c4113e)" d="M 131.809923 213.84 
L 138.659353 213.84 
L 138.659353 105.286154 
L 131.809923 105.286154 
z
" style="fill:#ff7f0e;"/>
   </g>
   <g id="patch_22">
    <path clip-path="url(#pd6c8c4113e)" d="M 138.659353 213.84 
L 145.508783 213.84 
L 145.508783 151.809231 
L 138.659353 151.809231 
z
" style="fill:#ff7f0e;"/>
   </g>
   <g id="patch_23">
    <path clip-path="url(#pd6c8c4113e)" d="M 125.938983 213.84 
L 133.766903 213.84 
L 133.766903 198.332308 
L 125.938983 198.332308 
z
" style="fill:#2ca02c;"/>
   </g>
   <g id="patch_24">
    <path clip-path="url(#pd6c8c4113e)" d="M 133.766903 213.84 
L 141.594823 213.84 
L 141.594823 136.301538 
L 133.766903 136.301538 
z
" style="fill:#2ca02c;"/>
   </g>
   <g id="patch_25">
    <path clip-path="url(#pd6c8c4113e)" d="M 141.594823 213.84 
L 149.422743 213.84 
L 149.422743 27.747692 
L 141.594823 27.747692 
z
" style="fill:#2ca02c;"/>
   </g>
   <g id="patch_26">
    <path clip-path="url(#pd6c8c4113e)" d="M 149.422743 213.84 
L 157.250663 213.84 
L 157.250663 151.809231 
L 149.422743 151.809231 
z
" style="fill:#2ca02c;"/>
   </g>
   <g id="patch_27">
    <path clip-path="url(#pd6c8c4113e)" d="M 157.250663 213.84 
L 165.078582 213.84 
L 165.078582 74.270769 
L 157.250663 74.270769 
z
" style="fill:#2ca02c;"/>
   </g>
   <g id="patch_28">
    <path clip-path="url(#pd6c8c4113e)" d="M 165.078582 213.84 
L 172.906502 213.84 
L 172.906502 89.778462 
L 165.078582 89.778462 
z
" style="fill:#2ca02c;"/>
   </g>
   <g id="patch_29">
    <path clip-path="url(#pd6c8c4113e)" d="M 172.906502 213.84 
L 180.734422 213.84 
L 180.734422 136.301538 
L 172.906502 136.301538 
z
" style="fill:#2ca02c;"/>
   </g>
   <g id="patch_30">
    <path clip-path="url(#pd6c8c4113e)" d="M 180.734422 213.84 
L 188.562342 213.84 
L 188.562342 182.824615 
L 180.734422 182.824615 
z
" style="fill:#2ca02c;"/>
   </g>
   <g id="patch_31">
    <path clip-path="url(#pd6c8c4113e)" d="M 188.562342 213.84 
L 196.390262 213.84 
L 196.390262 198.332308 
L 188.562342 198.332308 
z
" style="fill:#2ca02c;"/>
   </g>
   <g id="patch_32">
    <path clip-path="url(#pd6c8c4113e)" d="M 196.390262 213.84 
L 204.218182 213.84 
L 204.218182 167.316923 
L 196.390262 167.316923 
z
" style="fill:#2ca02c;"/>
   </g>
   <g id="matplotlib.axis_1"/>
   <g id="matplotlib.axis_2"/>
   <g id="patch_33">
    <path d="M 2.16 213.84 
L 2.16 2.16 
" style="fill:none;stroke:#000000;stroke-linecap:square;stroke-linejoin:miter;stroke-width:0.8;"/>
   </g>
   <g id="patch_34">
    <path d="M 2.16 213.84 
L 213.84 213.84 
" style="fill:none;stroke:#000000;stroke-linecap:square;stroke-linejoin:miter;stroke-width:0.8;"/>
   </g>
  </g>
 </g>
 <defs>
  <clipPath id="pd6c8c4113e">
   <rect height="211.68" width="211.68" x="2.16" y="2.16"/>
  </clipPath>
 </defs>
</svg>
